<?xml version="1.0" standalone="no"?>
<!DOCTYPE svg PUBLIC "-//W3C//DTD SVG 20010904//EN"
 "http://www.w3.org/TR/2001/REC-SVG-20010904/DTD/svg10.dtd">
<svg version="1.0" xmlns="http://www.w3.org/2000/svg"
 width="2048.000000pt" height="2048.000000pt" viewBox="0 0 2048.000000 2048.000000"
 preserveAspectRatio="xMidYMid meet">
<metadata>
Created by potrace 1.14, written by Peter Selinger 2001-2017
</metadata>
<g transform="translate(0.000000,2048.000000) scale(0.100000,-0.100000)"
fill="#000000" stroke="none">
<path d="M11191 16769 c-49 -17 -72 -18 -243 -12 -161 5 -190 4 -205 -9 -15
-13 -53 -15 -253 -12 -129 2 -244 3 -255 3 -11 0 -159 -4 -329 -7 l-308 -7
-39 -44 c-72 -81 -159 -304 -159 -408 0 -37 -5 -60 -14 -67 -19 -14 -21 -31
-12 -88 6 -36 4 -52 -8 -69 -12 -18 -14 -38 -9 -94 4 -58 3 -73 -11 -84 -12
-10 -16 -31 -16 -84 0 -47 -10 -108 -30 -183 -24 -89 -29 -120 -22 -151 13
-57 -6 -206 -33 -265 -22 -47 -22 -53 -9 -97 12 -40 12 -53 -3 -106 -9 -33
-22 -64 -30 -68 -7 -4 -13 -21 -13 -38 0 -16 -7 -46 -15 -66 -11 -25 -17 -78
-18 -164 -3 -117 -6 -132 -31 -181 -25 -47 -27 -59 -21 -118 6 -61 5 -68 -24
-110 -31 -44 -31 -46 -30 -161 2 -104 0 -120 -19 -151 -19 -31 -22 -50 -22
-149 -1 -80 -5 -121 -15 -139 -8 -14 -14 -45 -15 -69 0 -31 -6 -51 -21 -67
-20 -22 -21 -27 -9 -87 11 -62 11 -65 -24 -155 -29 -74 -36 -105 -36 -162 0
-57 -5 -81 -27 -123 -22 -42 -26 -64 -24 -115 1 -49 -3 -71 -19 -97 -16 -26
-19 -42 -14 -73 5 -34 3 -42 -15 -51 -17 -10 -19 -16 -11 -31 16 -30 12 -59
-25 -165 -19 -55 -35 -115 -35 -133 0 -18 -11 -77 -24 -130 -17 -70 -26 -142
-31 -261 -7 -159 -9 -169 -46 -269 -22 -57 -39 -120 -39 -140 -1 -134 -18
-272 -43 -341 -20 -54 -27 -94 -27 -145 0 -46 -9 -101 -26 -156 -21 -74 -24
-96 -18 -168 6 -74 4 -85 -13 -105 -16 -17 -22 -42 -26 -118 -5 -82 -11 -106
-43 -173 -34 -71 -36 -81 -25 -111 10 -28 8 -41 -9 -86 -18 -44 -19 -57 -9
-81 7 -18 10 -63 6 -125 -3 -80 -15 -133 -61 -291 -45 -155 -56 -207 -56 -265
0 -55 -5 -79 -20 -102 -13 -19 -20 -47 -20 -78 0 -26 -7 -62 -16 -79 -11 -21
-14 -43 -10 -72 5 -32 -1 -64 -29 -146 -32 -93 -36 -112 -30 -171 5 -57 3 -69
-16 -93 -16 -21 -20 -35 -15 -61 6 -28 3 -36 -14 -45 -19 -10 -21 -17 -15 -52
6 -32 3 -44 -13 -61 -17 -18 -20 -40 -24 -132 -4 -87 -9 -119 -26 -152 -27
-51 -27 -66 -5 -104 13 -22 15 -32 6 -37 -13 -8 -43 -166 -43 -230 0 -28 -8
-56 -25 -82 -18 -29 -25 -53 -25 -90 0 -56 -22 -110 -45 -110 -8 0 -12 6 -9
14 3 8 -3 16 -15 19 -13 3 -21 13 -21 27 0 12 -12 36 -26 53 -24 29 -26 36
-20 96 5 61 4 68 -26 114 -31 49 -31 50 -21 113 13 73 -2 158 -36 215 -13 21
-18 42 -14 60 4 19 -2 40 -17 66 -27 45 -38 93 -50 223 -5 52 -14 113 -19 135
-6 22 -11 72 -11 110 0 61 -4 76 -30 115 -25 37 -30 55 -30 103 0 31 -4 57 -9
57 -5 0 -11 18 -15 39 -3 22 -15 61 -27 88 -11 26 -22 73 -24 103 -2 30 -15
100 -30 155 -22 82 -25 112 -20 166 6 59 3 77 -25 159 -17 51 -29 101 -27 112
3 11 -1 40 -8 66 -8 26 -17 70 -20 97 -4 28 -20 104 -36 170 -16 66 -32 153
-36 194 -4 52 -12 80 -25 93 -15 15 -18 34 -18 111 0 74 -4 100 -21 131 -15
28 -19 53 -17 95 2 44 -2 62 -19 86 -13 18 -23 53 -27 89 -4 35 -14 68 -26 84
-13 16 -20 40 -20 70 0 34 -6 52 -22 70 -21 22 -23 35 -28 176 -4 112 -9 158
-19 170 -9 11 -15 43 -15 89 -1 60 -8 90 -44 180 -26 65 -47 137 -52 180 -12
96 -19 136 -31 173 -5 18 -7 43 -4 55 8 31 -30 225 -50 255 -9 14 -15 46 -15
84 0 39 -6 69 -16 86 -15 21 -15 30 -4 64 12 35 11 41 -9 66 -25 31 -37 75
-46 164 -5 59 -4 68 20 99 14 19 25 43 25 53 0 10 19 32 42 48 l42 30 268 -4
c250 -3 270 -2 292 15 19 15 40 19 102 18 44 -1 99 2 124 6 59 10 201 102 234
152 72 110 105 321 72 451 -10 35 -17 98 -17 140 0 42 0 102 0 132 -1 30 3
139 6 241 5 123 4 203 -4 237 -8 37 -8 66 0 106 10 45 8 67 -5 123 -14 58 -15
83 -7 153 13 104 14 191 2 223 -6 16 -5 70 4 153 16 156 18 627 4 774 -9 83
-8 116 3 156 11 43 11 82 1 235 -7 101 -15 193 -18 204 -8 35 -65 58 -127 50
-50 -6 -62 -4 -129 29 -72 35 -99 42 -112 30 -3 -4 -26 -8 -49 -9 -24 -1 -63
-9 -87 -16 -35 -11 -45 -11 -48 -1 -6 15 -109 17 -118 2 -9 -14 -62 -12 -119
5 -71 21 -138 19 -181 -6 -39 -23 -72 -22 -193 8 -56 14 -64 14 -80 0 -14 -12
-63 -16 -252 -22 -334 -10 -336 -10 -431 14 -70 18 -91 19 -118 10 -25 -9 -42
-9 -73 2 -33 11 -45 10 -71 -1 -47 -20 -326 -24 -334 -4 -10 28 -100 14 -205
-33 l-57 -25 -29 21 c-27 18 -44 21 -147 21 -97 0 -120 -3 -130 -16 -11 -15
-16 -15 -60 5 -45 20 -50 20 -72 5 -15 -9 -31 -13 -41 -8 -17 8 -199 16 -337
15 -476 -3 -611 -8 -642 -24 -18 -9 -43 -17 -57 -17 -26 0 -116 38 -128 54 -3
5 -31 2 -65 -7 -75 -21 -122 -21 -152 -1 -17 12 -26 13 -34 5 -7 -7 -53 -11
-119 -11 -124 0 -142 -6 -205 -72 -66 -69 -75 -114 -81 -379 -3 -197 -2 -227
12 -238 11 -9 16 -30 16 -66 0 -29 7 -72 15 -96 12 -32 13 -50 5 -73 -5 -16
-10 -67 -10 -114 0 -66 -5 -94 -21 -127 l-21 -43 26 -66 27 -67 -14 -132 c-20
-185 -16 -391 7 -436 17 -32 17 -39 2 -132 -16 -96 -16 -100 5 -161 13 -41 18
-73 14 -93 -4 -16 -6 -129 -5 -250 1 -162 5 -225 15 -241 11 -17 11 -31 -1
-80 -13 -58 -13 -59 11 -84 19 -20 25 -37 25 -71 0 -33 6 -51 20 -64 15 -13
20 -31 20 -66 0 -29 9 -67 25 -101 17 -37 25 -70 25 -112 0 -51 4 -64 35 -106
65 -89 143 -124 300 -134 86 -6 107 -4 152 13 50 20 54 20 139 3 68 -13 88
-14 92 -4 4 13 34 16 46 5 4 -5 54 -9 109 -9 130 -2 187 -11 213 -35 12 -11
28 -17 37 -14 8 4 33 -5 55 -20 54 -36 95 -133 93 -217 -2 -41 5 -75 24 -122
14 -36 25 -80 23 -99 -1 -19 4 -42 11 -51 11 -13 11 -22 2 -42 -9 -21 -7 -34
10 -75 18 -40 21 -61 16 -112 -9 -97 11 -247 38 -277 28 -31 32 -44 56 -158
14 -71 17 -114 13 -180 -6 -80 -4 -92 18 -137 18 -37 23 -58 17 -80 -12 -54
-9 -73 16 -103 23 -28 25 -38 25 -130 0 -87 3 -103 18 -114 23 -16 35 -57 38
-128 4 -135 17 -296 26 -307 5 -6 10 -62 11 -125 3 -129 30 -236 73 -288 24
-28 26 -39 29 -138 3 -94 8 -123 44 -234 38 -116 41 -134 35 -193 -6 -60 -4
-71 25 -134 30 -65 32 -75 29 -168 -3 -89 -1 -101 20 -130 17 -25 24 -49 26
-100 2 -38 11 -86 20 -108 10 -22 19 -54 21 -71 1 -17 10 -45 20 -63 11 -22
16 -55 15 -99 -1 -90 9 -163 26 -187 8 -11 14 -32 14 -47 0 -15 7 -57 16 -95
13 -57 14 -76 4 -116 -12 -47 -11 -50 15 -77 24 -25 27 -34 21 -68 -4 -26 0
-55 10 -83 9 -26 13 -59 10 -79 -4 -24 0 -45 13 -65 10 -17 21 -55 24 -85 4
-31 25 -103 47 -162 26 -69 40 -123 40 -154 0 -35 5 -51 21 -65 17 -15 20 -25
15 -52 -4 -24 -2 -38 8 -46 10 -8 12 -24 9 -51 -5 -32 -1 -45 22 -71 24 -30
26 -37 20 -89 -6 -51 -4 -59 19 -87 23 -28 27 -42 30 -130 5 -115 15 -152 51
-195 28 -33 28 -36 9 -139 -5 -30 -2 -40 16 -57 21 -20 22 -26 16 -111 -7 -84
-6 -94 19 -150 19 -41 26 -71 23 -93 -3 -20 6 -73 23 -133 18 -63 29 -124 29
-164 0 -53 4 -70 25 -97 20 -26 25 -44 25 -87 0 -38 5 -59 16 -68 12 -10 14
-23 10 -54 -5 -28 1 -70 21 -140 18 -67 26 -120 25 -161 -2 -63 14 -158 47
-281 16 -60 18 -83 11 -130 -16 -97 -12 -144 15 -188 14 -24 25 -56 25 -78 0
-21 7 -54 15 -74 9 -20 15 -59 14 -88 -1 -28 3 -60 8 -70 6 -11 23 -67 38
-125 24 -93 26 -110 16 -159 -6 -30 -11 -73 -11 -96 0 -42 34 -155 64 -213 25
-48 76 -102 96 -102 10 0 37 -23 60 -50 32 -38 49 -50 70 -50 15 0 33 -7 40
-15 10 -12 38 -15 136 -15 76 0 124 -4 124 -10 0 -15 64 -12 134 6 85 22 275
17 303 -9 25 -22 33 -21 156 4 62 13 118 19 143 15 32 -4 43 -2 48 10 5 13 9
13 26 1 15 -11 60 -13 210 -10 164 3 191 1 197 -12 9 -25 56 -45 76 -33 13 7
35 6 69 -3 63 -15 201 -7 277 16 52 16 59 16 113 -1 l59 -17 31 23 31 23 48
-26 c51 -29 87 -33 152 -16 28 7 57 7 84 1 56 -13 97 8 195 98 68 62 76 74 81
115 4 26 16 58 28 73 18 24 20 35 14 112 -8 93 4 158 36 198 23 29 25 96 7
220 -11 78 -11 88 10 146 14 40 20 73 16 92 -10 50 21 189 51 228 23 30 25 40
19 87 -4 34 0 86 10 139 9 47 15 109 15 137 -1 34 4 57 13 67 10 10 17 48 21
127 5 79 11 117 22 129 11 12 15 41 15 112 0 86 3 103 30 160 26 55 30 74 30
151 0 72 4 93 20 115 17 23 21 49 27 172 6 138 8 148 42 220 31 68 35 85 39
180 3 79 8 110 21 124 12 14 16 41 17 125 1 97 5 117 48 249 49 150 53 176 35
215 -9 20 -8 30 6 51 11 16 15 37 12 54 -3 16 0 33 10 44 9 10 16 40 17 80 1
38 19 123 44 213 30 108 42 168 42 217 0 50 6 78 22 109 17 34 21 56 19 121
-1 74 2 87 38 166 38 85 39 90 45 236 5 119 11 156 26 187 12 23 20 58 20 89
0 28 7 67 15 87 8 20 15 66 15 104 0 37 4 78 9 92 12 31 58 312 66 401 4 51
12 77 30 101 14 17 25 45 25 60 0 16 12 58 26 94 24 61 25 69 14 117 -10 41
-10 76 -1 171 7 65 12 153 11 196 -1 72 2 82 31 130 28 44 34 65 40 142 4 50
17 124 28 165 16 57 20 91 16 140 -5 55 -3 71 16 105 21 40 23 55 48 330 7 73
15 104 45 165 29 60 36 86 36 135 0 36 10 91 25 138 15 46 25 101 25 137 0 47
5 64 24 87 12 15 28 38 35 51 14 26 48 29 54 5 42 -161 73 -260 83 -269 10 -8
14 -37 14 -96 0 -70 4 -93 23 -129 13 -24 27 -70 31 -102 3 -32 13 -71 21 -87
8 -16 20 -73 26 -127 8 -67 18 -106 30 -122 15 -19 19 -41 19 -106 0 -69 3
-85 20 -100 13 -12 17 -25 14 -45 -3 -15 3 -65 15 -111 11 -46 18 -93 15 -104
-3 -13 2 -27 15 -39 16 -14 21 -31 21 -67 0 -35 5 -51 18 -58 12 -7 17 -23 18
-58 0 -26 4 -114 9 -195 7 -121 11 -151 25 -163 10 -9 16 -24 13 -35 -3 -11 9
-44 27 -77 32 -57 33 -58 26 -155 -6 -92 -5 -101 24 -173 16 -42 30 -91 30
-110 0 -19 4 -35 9 -35 5 0 21 -24 35 -54 22 -46 26 -69 26 -146 0 -74 5 -101
25 -150 14 -33 39 -119 55 -191 24 -107 28 -145 23 -203 -5 -62 -3 -78 17
-116 18 -35 24 -66 26 -139 3 -70 8 -97 19 -103 11 -7 12 -15 4 -35 -11 -31
-3 -63 17 -63 20 0 17 -33 -6 -62 -23 -30 -16 -69 24 -121 20 -26 26 -45 26
-86 0 -36 8 -67 27 -104 23 -45 27 -65 28 -149 1 -79 4 -101 19 -117 12 -14
20 -39 22 -78 1 -32 14 -88 28 -126 22 -56 26 -84 26 -170 0 -62 4 -107 11
-114 6 -6 13 -31 15 -55 2 -23 15 -76 29 -117 18 -54 25 -95 25 -150 0 -59 5
-84 20 -109 14 -23 23 -60 27 -114 3 -44 12 -85 19 -92 7 -7 21 -66 33 -132
11 -65 32 -157 46 -204 16 -52 31 -137 39 -218 9 -94 18 -137 29 -150 12 -13
18 -47 23 -123 6 -93 11 -114 46 -191 38 -84 39 -91 37 -180 -2 -57 2 -102 9
-115 7 -12 12 -31 12 -42 0 -12 4 -21 9 -21 12 0 21 -55 28 -167 4 -73 9 -95
24 -109 16 -14 19 -31 19 -96 0 -55 6 -94 19 -126 14 -34 21 -83 25 -172 5
-98 9 -128 22 -137 13 -9 15 -23 9 -75 -6 -55 -4 -66 14 -90 25 -32 27 -55 4
-80 -16 -18 -16 -24 11 -106 16 -48 41 -112 57 -143 16 -31 29 -66 29 -78 0
-12 6 -21 15 -21 8 0 15 -5 15 -11 0 -13 25 -39 39 -39 6 0 13 -10 17 -22 3
-13 32 -42 64 -65 l58 -43 164 0 c134 0 180 4 244 21 65 17 95 19 172 14 69
-5 92 -10 92 -21 0 -21 195 -20 204 1 4 12 25 15 101 15 53 0 117 5 143 12 35
9 47 9 50 0 2 -7 9 -12 17 -12 7 0 18 -7 25 -15 16 -19 140 -19 260 -1 66 11
87 11 95 2 7 -8 34 -11 83 -8 48 3 82 0 97 -8 18 -10 31 -10 56 -1 46 16 99
14 99 -3 0 -22 15 -24 178 -18 123 4 152 2 152 -8 0 -11 3 -11 12 -2 7 7 24
12 38 12 16 0 37 11 51 26 18 20 30 24 52 20 23 -5 35 1 63 29 19 19 43 35 52
35 27 0 68 49 86 102 22 66 39 264 34 377 -5 82 -2 105 18 163 13 38 26 97 30
131 4 38 16 79 31 106 22 37 25 52 19 97 -5 42 -2 59 14 86 13 22 21 61 26
118 3 47 17 129 30 183 21 82 24 118 22 220 -3 112 -1 126 21 167 15 28 27 75
33 125 6 55 16 93 34 123 21 35 27 64 34 150 5 59 14 136 19 172 6 36 11 88
11 116 0 37 10 72 35 127 38 83 43 120 20 163 -21 40 -19 77 6 127 35 68 40
95 24 134 -20 48 -19 65 6 98 12 15 26 47 30 72 5 24 18 56 30 71 20 26 21 34
14 203 l-7 176 31 59 c27 51 31 70 31 133 0 64 5 84 37 155 36 78 37 86 44
231 9 189 16 231 45 275 22 34 23 36 8 104 -13 64 -13 71 3 94 36 50 43 68 43
113 0 30 10 68 27 105 25 53 28 71 29 174 1 87 8 144 29 235 15 66 27 146 26
177 -1 47 2 59 20 72 16 11 23 30 28 78 4 35 14 77 23 93 11 21 14 49 11 95
-4 48 3 105 26 213 17 81 31 171 31 199 0 31 6 58 15 68 10 11 16 51 21 130 6
106 9 117 33 143 25 27 26 33 23 125 -2 78 3 119 24 207 15 61 30 155 34 210
4 59 15 122 28 155 11 30 26 98 32 150 7 52 18 115 26 140 8 25 14 69 14 98 0
32 6 63 16 78 11 16 19 60 24 127 5 68 20 145 44 230 29 102 36 145 36 215 0
68 4 95 20 125 13 24 20 56 20 92 0 32 7 69 16 87 11 22 14 43 9 79 -6 45 -3
55 36 126 38 69 44 88 49 160 5 72 12 94 51 170 66 131 48 123 263 123 141 0
192 4 219 15 20 8 47 15 60 15 14 0 30 -7 37 -15 10 -12 36 -15 115 -15 79 0
105 3 115 15 8 10 31 15 69 15 34 0 73 8 99 20 37 17 47 29 73 85 17 36 35 65
39 65 5 0 18 28 29 63 26 80 25 243 -3 296 -16 30 -17 39 -5 75 9 29 12 93 9
221 -4 238 -5 336 -1 415 2 36 0 115 -4 175 -4 61 -7 152 -6 203 2 77 -1 99
-20 136 -24 48 -23 59 7 198 16 74 17 98 7 175 -9 72 -8 93 3 115 20 39 17 82
-6 103 -25 23 -25 50 -1 106 16 37 18 52 10 94 -6 28 -8 91 -4 141 5 78 4 94
-11 108 -14 15 -15 23 -5 55 18 60 44 407 38 509 -4 60 -11 102 -21 117 -9 13
-16 31 -16 40 0 8 -6 15 -13 15 -7 0 -19 22 -26 49 -10 41 -17 50 -41 54 -16
4 -50 19 -77 35 -44 27 -58 30 -173 36 -69 3 -179 1 -245 -5 -148 -12 -132
-12 -239 0 -61 7 -121 7 -194 0 -76 -8 -116 -8 -143 0 -30 9 -47 7 -105 -13
-73 -24 -144 -24 -191 2 -12 7 -47 12 -78 12 -31 0 -91 9 -134 20 -107 27
-132 27 -172 2 -41 -25 -64 -26 -263 -18 -87 3 -176 2 -214 -4 -47 -8 -97 -7
-181 1 -64 7 -136 11 -161 9 -57 -4 -321 -5 -465 -2 -60 2 -141 0 -178 -4
l-68 -6 -67 -74 c-70 -78 -79 -95 -81 -155 -1 -20 -10 -56 -20 -80 -17 -37
-18 -46 -6 -59 25 -29 36 -158 30 -385 -4 -187 -2 -223 11 -243 14 -21 14 -30
0 -85 -8 -34 -18 -96 -21 -138 -6 -65 -4 -81 14 -116 l20 -41 -20 -58 c-30
-84 -35 -159 -15 -227 15 -53 15 -61 0 -114 -14 -48 -15 -65 -5 -102 19 -73
25 -220 12 -327 -11 -85 -10 -111 3 -175 34 -166 38 -252 25 -543 -22 -477 16
-670 141 -724 24 -10 89 -17 205 -22 348 -15 395 -58 393 -360 0 -131 -2 -147
-21 -167 -14 -16 -20 -35 -19 -65 1 -26 -11 -75 -33 -135 -28 -75 -35 -108
-35 -165 0 -61 -6 -88 -42 -177 -40 -102 -42 -111 -49 -256 -6 -125 -12 -167
-38 -255 -17 -58 -31 -119 -31 -137 0 -18 -11 -49 -26 -70 -25 -37 -25 -42
-22 -168 2 -120 1 -134 -20 -168 -18 -31 -23 -59 -28 -165 -7 -133 -26 -234
-68 -364 -21 -64 -26 -102 -29 -213 -3 -89 -8 -139 -17 -150 -7 -8 -18 -43
-25 -77 -7 -35 -23 -90 -35 -123 -19 -52 -21 -71 -15 -141 6 -72 4 -87 -15
-124 -16 -32 -26 -81 -37 -194 -13 -126 -19 -157 -39 -189 -25 -38 -29 -68
-24 -167 2 -42 -3 -70 -23 -116 -19 -45 -25 -71 -20 -98 4 -27 1 -42 -12 -56
-19 -20 -46 -214 -49 -346 -1 -53 -5 -65 -32 -96 -22 -25 -33 -49 -37 -85 -3
-27 -20 -85 -37 -128 -28 -70 -31 -87 -26 -141 4 -34 4 -69 0 -78 -8 -20 -74
-23 -74 -3 0 8 -9 22 -20 32 -12 11 -20 31 -20 50 0 18 -11 46 -25 65 -18 25
-25 46 -25 82 0 34 -4 48 -14 48 -15 0 -21 19 -32 98 -4 33 -12 56 -22 59 -12
5 -13 21 -8 95 4 48 3 88 -1 88 -4 0 -8 20 -9 45 -1 27 -8 52 -17 63 -11 11
-17 36 -17 63 0 27 -10 65 -27 99 -24 51 -26 63 -24 178 2 83 -1 122 -8 122
-6 0 -11 11 -11 25 0 16 -6 25 -15 25 -12 0 -15 18 -15 103 0 97 -2 107 -35
176 -29 60 -35 84 -35 139 -1 87 -24 193 -44 204 -13 7 -16 28 -16 112 0 93
-2 105 -25 136 -21 28 -25 45 -25 101 0 37 -4 71 -10 74 -5 3 -10 20 -10 37 0
17 -7 39 -15 48 -11 12 -17 52 -22 144 -6 118 -8 129 -29 142 -31 21 -36 39
-24 84 8 31 6 57 -15 141 -14 57 -25 126 -25 152 0 33 -7 57 -21 76 -17 23
-21 43 -21 101 0 54 -5 81 -19 104 -13 21 -19 50 -19 89 0 42 -5 66 -19 83
-15 19 -20 49 -26 176 -6 133 -11 160 -35 222 -27 66 -38 127 -60 311 -4 39
-16 90 -25 115 -10 25 -21 84 -25 131 -4 47 -15 100 -24 117 -12 23 -16 59
-16 141 0 101 -2 114 -30 173 -18 37 -30 79 -30 103 0 23 -9 53 -20 70 -16 24
-20 47 -20 123 0 83 -3 96 -26 132 -23 35 -26 47 -21 95 5 47 -1 72 -39 182
-32 94 -44 143 -44 186 0 43 -5 65 -21 87 -17 22 -20 37 -16 67 4 26 1 44 -9
58 -10 14 -13 32 -8 62 4 29 1 56 -10 83 -9 24 -16 69 -16 109 0 55 -5 78 -25
112 -21 38 -25 56 -25 137 0 79 -4 99 -25 140 -18 34 -28 77 -37 160 -8 79
-16 112 -25 112 -8 0 -13 13 -13 38 0 20 -9 71 -21 112 -15 54 -19 92 -16 134
5 51 2 67 -22 115 -20 40 -30 78 -34 131 -3 41 -19 128 -35 193 -22 88 -28
127 -22 154 6 23 4 48 -5 73 -7 21 -13 62 -13 92 1 38 -8 75 -31 131 -26 65
-31 91 -31 158 0 66 -4 86 -20 106 -16 21 -20 41 -20 104 0 60 -5 88 -20 116
-11 21 -20 48 -20 61 0 44 -84 152 -119 152 -9 0 -44 16 -77 36 -112 69 -93
65 -280 58 l-171 -7 -62 32 c-73 37 -137 40 -220 10z m-1121 -369 c0 -5 -4
-10 -10 -10 -5 0 -10 5 -10 10 0 6 5 10 10 10 6 0 10 -4 10 -10z"/>
</g>
</svg>
